<svg width="25" height="23" viewBox="0 0 25 23" fill="none" xmlns="http://www.w3.org/2000/svg">
<path d="M24.7428 19.8243L14.0401 1.39182C13.713 0.826847 13.1482 0.5 12.494 0.5C11.8401 0.5 11.2751 0.827095 10.948 1.39182L0.245321 19.8243C-0.0817736 20.3893 -0.0817736 21.0432 0.245321 21.6082C0.572415 22.1731 1.13714 22.5 1.79133 22.5L23.1973 22.4998C23.8513 22.4998 24.4163 22.1727 24.7433 21.6079C25.0702 21.0432 25.0702 20.389 24.7431 19.8242L24.7428 19.8243ZM23.732 21.0135C23.6725 21.1027 23.5238 21.3108 23.2265 21.3108L1.79154 21.3106C1.49419 21.3106 1.31577 21.1024 1.28604 21.0132C1.22657 20.924 1.13736 20.6861 1.28604 20.4185L11.9887 1.98606C12.1374 1.71844 12.405 1.6887 12.4943 1.6887C12.5835 1.6887 12.8511 1.71844 12.9998 1.98606L23.7025 20.4185C23.8806 20.6864 23.7914 20.9243 23.732 21.0135ZM13.0889 17.743C13.0889 18.0701 12.8212 18.3377 12.4942 18.3377C12.1671 18.3377 11.8994 18.0701 11.8994 17.743C11.8994 17.4159 12.1671 17.1483 12.4942 17.1483C12.8212 17.1485 13.0889 17.4161 13.0889 17.743ZM13.0889 7.63512V14.7701C13.0889 15.0972 12.8212 15.3648 12.4942 15.3648C12.1671 15.3648 11.8994 15.0971 11.8994 14.7701L11.8997 7.63512C11.8997 7.30802 12.1673 7.04041 12.4944 7.04041C12.8212 7.04041 13.0889 7.30803 13.0889 7.63512Z" fill="#E2BE00"/>
</svg>
