<svg width="25" height="25" viewBox="0 0 25 25" fill="none" xmlns="http://www.w3.org/2000/svg">
<path d="M19.8243 19.6835H5.82434" stroke="#A0A3BD" stroke-width="2" stroke-linecap="round"/>
<path d="M11.8243 14.6835V10.6835C11.8243 9.57892 10.9289 8.68349 9.82434 8.68349C8.71977 8.68349 7.82434 9.57892 7.82434 10.6835V14.6835C7.82434 15.7881 8.71977 16.6835 9.82434 16.6835C10.9289 16.6835 11.8243 15.7881 11.8243 14.6835Z" fill="#A0A3BD"/>
<path d="M17.8243 14.6835V6.68349C17.8243 5.57892 16.9289 4.68349 15.8243 4.68349C14.7198 4.68349 13.8243 5.57892 13.8243 6.68349V14.6835C13.8243 15.7881 14.7198 16.6835 15.8243 16.6835C16.9289 16.6835 17.8243 15.7881 17.8243 14.6835Z" fill="#A0A3BD"/>
</svg>
