<svg width="25" height="25" viewBox="0 0 25 25" fill="none" xmlns="http://www.w3.org/2000/svg">
<path fill-rule="evenodd" clip-rule="evenodd" d="M18.7305 17.9148C19.1232 18.3636 19.8233 18.3729 20.168 17.8864C20.7802 17.0224 21.2386 16.0521 21.5163 15.0178C21.836 13.8274 21.9061 12.5906 21.73 11.3836C21.6438 10.7936 21.0158 10.4839 20.4622 10.7054L15.8176 12.5632C15.1774 12.8193 14.9824 13.6312 15.4365 14.1502L18.7305 17.9148ZM20.1697 7.48297C20.5143 7.96963 20.2731 8.62697 19.7194 8.84842L15.1957 10.6579C14.5389 10.9206 13.8243 10.4369 13.8243 9.72942V4.85724C13.8243 4.26096 14.3451 3.79288 14.9249 3.93205C16.0174 4.1943 17.0574 4.6603 17.9879 5.31209C18.8393 5.90851 19.5759 6.64423 20.1697 7.48297Z" fill="#A0A3BD"/>
<path fill-rule="evenodd" clip-rule="evenodd" d="M11.8243 3.83919C11.8243 3.24737 11.3114 2.78094 10.7327 2.90473C9.82135 3.09966 8.93836 3.42175 8.11038 3.86431C6.66005 4.63953 5.42329 5.76047 4.50965 7.12783C3.59601 8.49519 3.03369 10.0668 2.8725 11.7034C2.71131 13.3399 2.95622 14.991 3.58555 16.5104C4.21487 18.0297 5.20919 19.3704 6.48041 20.4136C7.75163 21.4569 9.26053 22.1706 10.8734 22.4914C12.4864 22.8122 14.1535 22.7303 15.7272 22.2529C16.4117 22.0453 17.0693 21.7656 17.6896 21.4202C18.2067 21.1322 18.2855 20.4434 17.8958 19.9981L12.1089 13.3844C11.9254 13.1748 11.8243 12.9057 11.8243 12.6271V3.83919Z" fill="#A0A3BD"/>
</svg>
